<svg xmlns="http://www.w3.org/2000/svg" xmlns:xlink="http://www.w3.org/1999/xlink" contentStyleType="text/css" height="794px" preserveAspectRatio="none" style="width:2872px;height:794px;background:#FFFFFF;" version="1.1" viewBox="0 0 2872 794" width="2872px" zoomAndPan="magnify"><defs/><g><!--cluster 11e0eed8d3696c0a632f822df385ab3c--><g id="cluster_11e0eed8d3696c0a632f822df385ab3c"><polygon fill="none" points="148.5,132.59,158.5,122.59,361.5,122.59,361.5,668.37,351.5,678.37,148.5,678.37,148.5,132.59" style="stroke:#181818;stroke-width:1.0;"/><line style="stroke:#181818;stroke-width:1.0;" x1="351.5" x2="361.5" y1="132.59" y2="122.59"/><line style="stroke:#181818;stroke-width:1.0;" x1="148.5" x2="351.5" y1="132.59" y2="132.59"/><line style="stroke:#181818;stroke-width:1.0;" x1="351.5" x2="351.5" y1="132.59" y2="678.37"/><text fill="#000000" font-family="sans-serif" font-size="14" font-weight="bold" lengthAdjust="spacing" textLength="73" x="214.5" y="148.5851">Database</text></g><!--cluster 18897dcfce6a4e7ae63a3baeed443c48--><g id="cluster_18897dcfce6a4e7ae63a3baeed443c48"><polygon fill="none" points="401.5,132.59,411.5,122.59,917.5,122.59,917.5,415.08,907.5,425.08,401.5,425.08,401.5,132.59" style="stroke:#181818;stroke-width:1.0;"/><line style="stroke:#181818;stroke-width:1.0;" x1="907.5" x2="917.5" y1="132.59" y2="122.59"/><line style="stroke:#181818;stroke-width:1.0;" x1="401.5" x2="907.5" y1="132.59" y2="132.59"/><line style="stroke:#181818;stroke-width:1.0;" x1="907.5" x2="907.5" y1="132.59" y2="425.08"/><text fill="#000000" font-family="sans-serif" font-size="14" font-weight="bold" lengthAdjust="spacing" textLength="104" x="603.5" y="148.5851">Elasticsearch</text></g><!--cluster 86a1b907d54bf7010394bf316e183e67--><g id="cluster_86a1b907d54bf7010394bf316e183e67"><polygon fill="none" points="957.5,132.59,967.5,122.59,1232.5,122.59,1232.5,668.37,1222.5,678.37,957.5,678.37,957.5,132.59" style="stroke:#181818;stroke-width:1.0;"/><line style="stroke:#181818;stroke-width:1.0;" x1="1222.5" x2="1232.5" y1="132.59" y2="122.59"/><line style="stroke:#181818;stroke-width:1.0;" x1="957.5" x2="1222.5" y1="132.59" y2="132.59"/><line style="stroke:#181818;stroke-width:1.0;" x1="1222.5" x2="1222.5" y1="132.59" y2="678.37"/><text fill="#000000" font-family="sans-serif" font-size="14" font-weight="bold" lengthAdjust="spacing" textLength="43" x="1069.5" y="148.5851">Redis</text></g><!--cluster 6f89db8c03f726c7dbb1e9cd1bd5fcec--><g id="cluster_6f89db8c03f726c7dbb1e9cd1bd5fcec"><polygon fill="none" points="1617.5,148.89,1627.5,138.89,2855.5,138.89,2855.5,668.37,2845.5,678.37,1617.5,678.37,1617.5,148.89" style="stroke:#181818;stroke-width:1.0;"/><line style="stroke:#181818;stroke-width:1.0;" x1="2845.5" x2="2855.5" y1="148.89" y2="138.89"/><line style="stroke:#181818;stroke-width:1.0;" x1="1617.5" x2="2845.5" y1="148.89" y2="148.89"/><line style="stroke:#181818;stroke-width:1.0;" x1="2845.5" x2="2845.5" y1="148.89" y2="678.37"/><text fill="#000000" font-family="sans-serif" font-size="14" font-weight="bold" lengthAdjust="spacing" textLength="81" x="2192" y="164.8851">Peeringdb</text></g><!--entity 7357329cc0f0b64acb1bd02867aa8271--><g id="elem_7357329cc0f0b64acb1bd02867aa8271"><rect fill="#F1F1F1" height="111.4844" rx="2.5" ry="2.5" style="stroke:#181818;stroke-width:0.5;" width="145" x="173" y="170.59"/><rect fill="#F1F1F1" height="10" style="stroke:#181818;stroke-width:0.5;" width="15" x="298" y="175.59"/><rect fill="#F1F1F1" height="2" style="stroke:#181818;stroke-width:0.5;" width="4" x="296" y="177.59"/><rect fill="#F1F1F1" height="2" style="stroke:#181818;stroke-width:0.5;" width="4" x="296" y="181.59"/><text fill="#000000" font-family="sans-serif" font-size="14" font-weight="bold" lengthAdjust="spacing" textLength="72" x="188" y="203.5851">database</text><text fill="#000000" font-family="sans-serif" font-size="14" lengthAdjust="spacing" textLength="4" x="188" y="219.882">&#160;</text><text fill="#000000" font-family="sans-serif" font-size="14" lengthAdjust="spacing" textLength="105" x="188" y="236.1789">image: mysql:8</text><text fill="#000000" font-family="sans-serif" font-size="14" lengthAdjust="spacing" textLength="99" x="188" y="252.4757">restart: always</text><text fill="#000000" font-family="sans-serif" font-size="14" lengthAdjust="spacing" textLength="4" x="188" y="268.7726">&#160;</text></g><!--entity 0a5412d109d4653ccbae5390ef8ea14b--><g id="elem_0a5412d109d4653ccbae5390ef8ea14b"><ellipse cx="199.5" cy="372.08" fill="#F1F1F1" rx="8" ry="8" style="stroke:#181818;stroke-width:0.5;"/><text fill="#000000" font-family="sans-serif" font-size="14" lengthAdjust="spacing" textLength="36" x="181.5" y="402.0751">3306</text></g><!--entity 4924d48312b63a4730c1e21527cf9da6--><g id="elem_4924d48312b63a4730c1e21527cf9da6"><rect fill="#F1F1F1" height="39.2969" rx="2.5" ry="2.5" style="stroke:#181818;stroke-width:0.5;" width="120" x="198.5" y="615.08"/><polygon fill="#F1F1F1" points="301.5,620.08,301.5,634.08,313.5,634.08,313.5,626.08,307.5,620.08,301.5,620.08" style="stroke:#181818;stroke-width:0.5;"/><line style="stroke:#181818;stroke-width:0.5;" x1="307.5" x2="307.5" y1="620.08" y2="626.08"/><line style="stroke:#181818;stroke-width:0.5;" x1="313.5" x2="307.5" y1="626.08" y2="626.08"/><text fill="#000000" font-family="sans-serif" font-size="14" lengthAdjust="spacing" textLength="90" x="208.5" y="641.0751">/var/lib/mysql</text></g><!--entity fec57329d6a9b94d70a2945dd5dce11f--><g id="elem_fec57329d6a9b94d70a2945dd5dce11f"><rect fill="#F1F1F1" height="111.4844" rx="2.5" ry="2.5" style="stroke:#181818;stroke-width:0.5;" width="449" x="425" y="170.59"/><rect fill="#F1F1F1" height="10" style="stroke:#181818;stroke-width:0.5;" width="15" x="854" y="175.59"/><rect fill="#F1F1F1" height="2" style="stroke:#181818;stroke-width:0.5;" width="4" x="852" y="177.59"/><rect fill="#F1F1F1" height="2" style="stroke:#181818;stroke-width:0.5;" width="4" x="852" y="181.59"/><text fill="#000000" font-family="sans-serif" font-size="14" font-weight="bold" lengthAdjust="spacing" textLength="105" x="440" y="203.5851">elasticsearch</text><text fill="#000000" font-family="sans-serif" font-size="14" lengthAdjust="spacing" textLength="4" x="440" y="219.882">&#160;</text><text fill="#000000" font-family="sans-serif" font-size="14" lengthAdjust="spacing" textLength="409" x="440" y="236.1789">image: docker.elastic.co/elasticsearch/elasticsearch:8.10.4</text><text fill="#000000" font-family="sans-serif" font-size="14" lengthAdjust="spacing" textLength="289" x="440" y="252.4757">environment: discovery.type=single-node</text><text fill="#000000" font-family="sans-serif" font-size="14" lengthAdjust="spacing" textLength="4" x="440" y="268.7726">&#160;</text></g><!--entity 5869f2e2a23d931979e7c1c46841e061--><g id="elem_5869f2e2a23d931979e7c1c46841e061"><ellipse cx="649.5" cy="372.08" fill="#F1F1F1" rx="8" ry="8" style="stroke:#181818;stroke-width:0.5;"/><text fill="#000000" font-family="sans-serif" font-size="14" lengthAdjust="spacing" textLength="36" x="631.5" y="402.0751">9200</text></g><!--entity 3c217ea98bfddc0f9ff1c849de325d93--><g id="elem_3c217ea98bfddc0f9ff1c849de325d93"><rect fill="#F1F1F1" height="111.4844" rx="2.5" ry="2.5" style="stroke:#181818;stroke-width:0.5;" width="208" x="981.5" y="170.59"/><rect fill="#F1F1F1" height="10" style="stroke:#181818;stroke-width:0.5;" width="15" x="1169.5" y="175.59"/><rect fill="#F1F1F1" height="2" style="stroke:#181818;stroke-width:0.5;" width="4" x="1167.5" y="177.59"/><rect fill="#F1F1F1" height="2" style="stroke:#181818;stroke-width:0.5;" width="4" x="1167.5" y="181.59"/><text fill="#000000" font-family="sans-serif" font-size="14" font-weight="bold" lengthAdjust="spacing" textLength="40" x="996.5" y="203.5851">redis</text><text fill="#000000" font-family="sans-serif" font-size="14" lengthAdjust="spacing" textLength="4" x="996.5" y="219.882">&#160;</text><text fill="#000000" font-family="sans-serif" font-size="14" lengthAdjust="spacing" textLength="168" x="996.5" y="236.1789">image: docker.io/redis:7</text><text fill="#000000" font-family="sans-serif" font-size="14" lengthAdjust="spacing" textLength="99" x="996.5" y="252.4757">restart: always</text><text fill="#000000" font-family="sans-serif" font-size="14" lengthAdjust="spacing" textLength="4" x="996.5" y="268.7726">&#160;</text></g><!--entity 09876deab5af8de0c168ec3aa053742d--><g id="elem_09876deab5af8de0c168ec3aa053742d"><ellipse cx="1155.5" cy="372.08" fill="#F1F1F1" rx="8" ry="8" style="stroke:#181818;stroke-width:0.5;"/><text fill="#000000" font-family="sans-serif" font-size="14" lengthAdjust="spacing" textLength="36" x="1137.5" y="402.0751">6379</text></g><!--entity 4ee201798dddc2e46fd8eed211348fce--><g id="elem_4ee201798dddc2e46fd8eed211348fce"><rect fill="#F1F1F1" height="39.2969" rx="2.5" ry="2.5" style="stroke:#181818;stroke-width:0.5;" width="65" x="1053" y="615.08"/><polygon fill="#F1F1F1" points="1101,620.08,1101,634.08,1113,634.08,1113,626.08,1107,620.08,1101,620.08" style="stroke:#181818;stroke-width:0.5;"/><line style="stroke:#181818;stroke-width:0.5;" x1="1107" x2="1107" y1="620.08" y2="626.08"/><line style="stroke:#181818;stroke-width:0.5;" x1="1113" x2="1107" y1="626.08" y2="626.08"/><text fill="#000000" font-family="sans-serif" font-size="14" lengthAdjust="spacing" textLength="35" x="1063" y="641.0751">/data</text></g><!--entity c27c9a28fb102581235b89358b8c717e--><g id="elem_c27c9a28fb102581235b89358b8c717e"><rect fill="#F1F1F1" height="78.8906" rx="2.5" ry="2.5" style="stroke:#181818;stroke-width:0.5;" width="121" x="1978" y="186.89"/><rect fill="#F1F1F1" height="10" style="stroke:#181818;stroke-width:0.5;" width="15" x="2079" y="191.89"/><rect fill="#F1F1F1" height="2" style="stroke:#181818;stroke-width:0.5;" width="4" x="2077" y="193.89"/><rect fill="#F1F1F1" height="2" style="stroke:#181818;stroke-width:0.5;" width="4" x="2077" y="197.89"/><text fill="#000000" font-family="sans-serif" font-size="14" font-weight="bold" lengthAdjust="spacing" textLength="81" x="1993" y="219.8851">peeringdb</text><text fill="#000000" font-family="sans-serif" font-size="14" lengthAdjust="spacing" textLength="4" x="1993" y="236.182">&#160;</text><text fill="#000000" font-family="sans-serif" font-size="14" lengthAdjust="spacing" textLength="4" x="1993" y="252.4789">&#160;</text></g><!--entity 6f83c0e5ccf6b3d4b3a9b65477ecdb74--><g id="elem_6f83c0e5ccf6b3d4b3a9b65477ecdb74"><ellipse cx="1789.5" cy="372.08" fill="#F1F1F1" rx="8" ry="8" style="stroke:#181818;stroke-width:0.5;"/><text fill="#000000" font-family="sans-serif" font-size="14" lengthAdjust="spacing" textLength="36" x="1771.5" y="402.0751">8000</text></g><!--entity 29c79f3042b1758eff4465df78f895a5--><g id="elem_29c79f3042b1758eff4465df78f895a5"><rect fill="#F1F1F1" height="39.2969" rx="2.5" ry="2.5" style="stroke:#181818;stroke-width:0.5;" width="328" x="2194.5" y="615.08"/><polygon fill="#F1F1F1" points="2505.5,620.08,2505.5,634.08,2517.5,634.08,2517.5,626.08,2511.5,620.08,2505.5,620.08" style="stroke:#181818;stroke-width:0.5;"/><line style="stroke:#181818;stroke-width:0.5;" x1="2511.5" x2="2511.5" y1="620.08" y2="626.08"/><line style="stroke:#181818;stroke-width:0.5;" x1="2517.5" x2="2511.5" y1="626.08" y2="626.08"/><text fill="#000000" font-family="sans-serif" font-size="14" lengthAdjust="spacing" textLength="298" x="2204.5" y="641.0751">/srv/www.peeringdb.com/peeringdb_server</text></g><!--entity 0632ece5cfac0cb066b362637384f6e4--><g id="elem_0632ece5cfac0cb066b362637384f6e4"><rect fill="#F1F1F1" height="39.2969" rx="2.5" ry="2.5" style="stroke:#181818;stroke-width:0.5;" width="265" x="2558" y="615.08"/><polygon fill="#F1F1F1" points="2806,620.08,2806,634.08,2818,634.08,2818,626.08,2812,620.08,2806,620.08" style="stroke:#181818;stroke-width:0.5;"/><line style="stroke:#181818;stroke-width:0.5;" x1="2812" x2="2812" y1="620.08" y2="626.08"/><line style="stroke:#181818;stroke-width:0.5;" x1="2818" x2="2812" y1="626.08" y2="626.08"/><text fill="#000000" font-family="sans-serif" font-size="14" lengthAdjust="spacing" textLength="235" x="2568" y="641.0751">/srv/www.peeringdb.com/mainsite</text></g><!--entity 840c8b84b11de622b4d3e004d5c16663--><g id="elem_840c8b84b11de622b4d3e004d5c16663"><rect fill="#F1F1F1" height="39.2969" rx="2.5" ry="2.5" style="stroke:#181818;stroke-width:0.5;" width="242" x="1641.5" y="615.08"/><polygon fill="#F1F1F1" points="1866.5,620.08,1866.5,634.08,1878.5,634.08,1878.5,626.08,1872.5,620.08,1866.5,620.08" style="stroke:#181818;stroke-width:0.5;"/><line style="stroke:#181818;stroke-width:0.5;" x1="1872.5" x2="1872.5" y1="620.08" y2="626.08"/><line style="stroke:#181818;stroke-width:0.5;" x1="1878.5" x2="1872.5" y1="626.08" y2="626.08"/><text fill="#000000" font-family="sans-serif" font-size="14" lengthAdjust="spacing" textLength="212" x="1651.5" y="641.0751">/srv/www.peeringdb.com/tests</text></g><!--entity 9abe2d319008c708a02aa28fff5096ea--><g id="elem_9abe2d319008c708a02aa28fff5096ea"><rect fill="#F1F1F1" height="39.2969" rx="2.5" ry="2.5" style="stroke:#181818;stroke-width:0.5;" width="241" x="1918" y="615.08"/><polygon fill="#F1F1F1" points="2142,620.08,2142,634.08,2154,634.08,2154,626.08,2148,620.08,2142,620.08" style="stroke:#181818;stroke-width:0.5;"/><line style="stroke:#181818;stroke-width:0.5;" x1="2148" x2="2148" y1="620.08" y2="626.08"/><line style="stroke:#181818;stroke-width:0.5;" x1="2154" x2="2148" y1="626.08" y2="626.08"/><text fill="#000000" font-family="sans-serif" font-size="14" lengthAdjust="spacing" textLength="211" x="1928" y="641.0751">/srv/www.peeringdb.com/docs</text></g><!--entity 093e015c99474929933ff85bb655d1ef--><g id="elem_093e015c99474929933ff85bb655d1ef"><polygon fill="#F1F1F1" points="901.5,16,911.5,6,1095.5,6,1095.5,58.5938,1085.5,68.5938,901.5,68.5938,901.5,16" style="stroke:#181818;stroke-width:0.5;"/><line style="stroke:#181818;stroke-width:0.5;" x1="1085.5" x2="1095.5" y1="16" y2="6"/><line style="stroke:#181818;stroke-width:0.5;" x1="901.5" x2="1085.5" y1="16" y2="16"/><line style="stroke:#181818;stroke-width:0.5;" x1="1085.5" x2="1085.5" y1="16" y2="68.5938"/><text fill="#000000" font-family="sans-serif" font-size="14" font-weight="bold" lengthAdjust="spacing" textLength="154" x="916.5" y="38.9951">peeringdb_network</text><text fill="#000000" font-family="sans-serif" font-size="14" lengthAdjust="spacing" textLength="74" x="916.5" y="55.292">&#171;network&#187;</text></g><!--entity a2cfecbdcf16de673b25e0267e762455--><g id="elem_a2cfecbdcf16de673b25e0267e762455"><ellipse cx="61.5" cy="525.08" fill="#F1F1F1" rx="8" ry="8" style="stroke:#181818;stroke-width:0.5;"/><text fill="#000000" font-family="sans-serif" font-size="14" lengthAdjust="spacing" textLength="111" x="6" y="555.0751">127.0.0.113306</text></g><!--entity c50bf13d046061855106b88f888f338d--><g id="elem_c50bf13d046061855106b88f888f338d"><ellipse cx="649.5" cy="525.08" fill="#F1F1F1" rx="8" ry="8" style="stroke:#181818;stroke-width:0.5;"/><text fill="#000000" font-family="sans-serif" font-size="14" lengthAdjust="spacing" textLength="102" x="598.5" y="555.0751">127.0.0.19200</text></g><!--entity b7fe1b80174213ef4fd0ec63be94522f--><g id="elem_b7fe1b80174213ef4fd0ec63be94522f"><ellipse cx="1315.5" cy="525.08" fill="#F1F1F1" rx="8" ry="8" style="stroke:#181818;stroke-width:0.5;"/><text fill="#000000" font-family="sans-serif" font-size="14" lengthAdjust="spacing" textLength="102" x="1264.5" y="555.0751">127.0.0.16379</text></g><!--entity e5fb061ea078eb61e215198574b052a8--><g id="elem_e5fb061ea078eb61e215198574b052a8"><ellipse cx="1501.5" cy="525.08" fill="#F1F1F1" rx="8" ry="8" style="stroke:#181818;stroke-width:0.5;"/><text fill="#000000" font-family="sans-serif" font-size="14" lengthAdjust="spacing" textLength="169" x="1417" y="555.0751">${DJANGO_PORT-8000}</text></g><!--entity 9b8116770b96c5812dbc7b6cb172672c--><g id="elem_9b8116770b96c5812dbc7b6cb172672c"><rect fill="#F1F1F1" height="39.2969" rx="2.5" ry="2.5" style="stroke:#181818;stroke-width:0.5;" width="172" x="172.5" y="749.37"/><polygon fill="#F1F1F1" points="327.5,754.37,327.5,768.37,339.5,768.37,339.5,760.37,333.5,754.37,327.5,754.37" style="stroke:#181818;stroke-width:0.5;"/><line style="stroke:#181818;stroke-width:0.5;" x1="333.5" x2="333.5" y1="754.37" y2="760.37"/><line style="stroke:#181818;stroke-width:0.5;" x1="339.5" x2="333.5" y1="760.37" y2="760.37"/><text fill="#000000" font-family="sans-serif" font-size="14" lengthAdjust="spacing" textLength="142" x="182.5" y="775.3651">peeringdb_database</text></g><!--entity e97a8ebb5bd6c0cab593286fe91e7d96--><g id="elem_e97a8ebb5bd6c0cab593286fe91e7d96"><rect fill="#F1F1F1" height="39.2969" rx="2.5" ry="2.5" style="stroke:#181818;stroke-width:0.5;" width="179" x="996" y="749.37"/><polygon fill="#F1F1F1" points="1158,754.37,1158,768.37,1170,768.37,1170,760.37,1164,754.37,1158,754.37" style="stroke:#181818;stroke-width:0.5;"/><line style="stroke:#181818;stroke-width:0.5;" x1="1164" x2="1164" y1="754.37" y2="760.37"/><line style="stroke:#181818;stroke-width:0.5;" x1="1170" x2="1164" y1="760.37" y2="760.37"/><text fill="#000000" font-family="sans-serif" font-size="14" lengthAdjust="spacing" textLength="149" x="1006" y="775.3651">peeringdb_redis_data</text></g><!--entity bc1253bc02f2ad410507bf241937244b--><g id="elem_bc1253bc02f2ad410507bf241937244b"><rect fill="#F1F1F1" height="39.2969" rx="2.5" ry="2.5" style="stroke:#181818;stroke-width:0.5;" width="177" x="2270" y="749.37"/><polygon fill="#F1F1F1" points="2430,754.37,2430,768.37,2442,768.37,2442,760.37,2436,754.37,2430,754.37" style="stroke:#181818;stroke-width:0.5;"/><line style="stroke:#181818;stroke-width:0.5;" x1="2436" x2="2436" y1="754.37" y2="760.37"/><line style="stroke:#181818;stroke-width:0.5;" x1="2442" x2="2436" y1="760.37" y2="760.37"/><text fill="#000000" font-family="sans-serif" font-size="14" lengthAdjust="spacing" textLength="147" x="2280" y="775.3651">../../peeringdb_server</text></g><!--entity 063ac6550af2cdd4c94d0960bb3deffe--><g id="elem_063ac6550af2cdd4c94d0960bb3deffe"><rect fill="#F1F1F1" height="39.2969" rx="2.5" ry="2.5" style="stroke:#181818;stroke-width:0.5;" width="114" x="2633.5" y="749.37"/><polygon fill="#F1F1F1" points="2730.5,754.37,2730.5,768.37,2742.5,768.37,2742.5,760.37,2736.5,754.37,2730.5,754.37" style="stroke:#181818;stroke-width:0.5;"/><line style="stroke:#181818;stroke-width:0.5;" x1="2736.5" x2="2736.5" y1="754.37" y2="760.37"/><line style="stroke:#181818;stroke-width:0.5;" x1="2742.5" x2="2736.5" y1="760.37" y2="760.37"/><text fill="#000000" font-family="sans-serif" font-size="14" lengthAdjust="spacing" textLength="84" x="2643.5" y="775.3651">../../mainsite</text></g><!--entity 1c3db4ca35cb66ad77a84cf4df861728--><g id="elem_1c3db4ca35cb66ad77a84cf4df861728"><rect fill="#F1F1F1" height="39.2969" rx="2.5" ry="2.5" style="stroke:#181818;stroke-width:0.5;" width="91" x="1717" y="749.37"/><polygon fill="#F1F1F1" points="1791,754.37,1791,768.37,1803,768.37,1803,760.37,1797,754.37,1791,754.37" style="stroke:#181818;stroke-width:0.5;"/><line style="stroke:#181818;stroke-width:0.5;" x1="1797" x2="1797" y1="754.37" y2="760.37"/><line style="stroke:#181818;stroke-width:0.5;" x1="1803" x2="1797" y1="760.37" y2="760.37"/><text fill="#000000" font-family="sans-serif" font-size="14" lengthAdjust="spacing" textLength="61" x="1727" y="775.3651">../../tests</text></g><!--entity 4f4e2d07e18aebf9df6bb39b46df6a88--><g id="elem_4f4e2d07e18aebf9df6bb39b46df6a88"><rect fill="#F1F1F1" height="39.2969" rx="2.5" ry="2.5" style="stroke:#181818;stroke-width:0.5;" width="90" x="1993.5" y="749.37"/><polygon fill="#F1F1F1" points="2066.5,754.37,2066.5,768.37,2078.5,768.37,2078.5,760.37,2072.5,754.37,2066.5,754.37" style="stroke:#181818;stroke-width:0.5;"/><line style="stroke:#181818;stroke-width:0.5;" x1="2072.5" x2="2072.5" y1="754.37" y2="760.37"/><line style="stroke:#181818;stroke-width:0.5;" x1="2078.5" x2="2072.5" y1="760.37" y2="760.37"/><text fill="#000000" font-family="sans-serif" font-size="14" lengthAdjust="spacing" textLength="60" x="2003.5" y="775.3651">../../docs</text></g><!--link 7357329cc0f0b64acb1bd02867aa8271 to 0a5412d109d4653ccbae5390ef8ea14b--><g id="link_7357329cc0f0b64acb1bd02867aa8271_0a5412d109d4653ccbae5390ef8ea14b"><path codeLine="57" d="M227.85,282.5 C218.02,313.22 206.81,348.25 201.95,363.41 " fill="none" id="7357329cc0f0b64acb1bd02867aa8271-0a5412d109d4653ccbae5390ef8ea14b" style="stroke:#181818;stroke-width:1.0;"/></g><!--link 0a5412d109d4653ccbae5390ef8ea14b to a2cfecbdcf16de673b25e0267e762455--><g id="link_0a5412d109d4653ccbae5390ef8ea14b_a2cfecbdcf16de673b25e0267e762455"><path codeLine="58" d="M192.47,380.77 C168.85,406.61 92.53,490.13 68.68,516.21 " fill="none" id="0a5412d109d4653ccbae5390ef8ea14b-a2cfecbdcf16de673b25e0267e762455" style="stroke:#181818;stroke-width:1.0;"/></g><!--link 4924d48312b63a4730c1e21527cf9da6 to 9b8116770b96c5812dbc7b6cb172672c--><g id="link_4924d48312b63a4730c1e21527cf9da6_9b8116770b96c5812dbc7b6cb172672c"><path codeLine="59" d="M258.5,654.68 C258.5,679.83 258.5,723.97 258.5,749.1 " fill="none" id="4924d48312b63a4730c1e21527cf9da6-9b8116770b96c5812dbc7b6cb172672c" style="stroke:#181818;stroke-width:1.0;"/><text fill="#000000" font-family="sans-serif" font-size="13" lengthAdjust="spacing" textLength="10" x="259.5" y="715.4369">Z</text></g><!--link 7357329cc0f0b64acb1bd02867aa8271 to 4924d48312b63a4730c1e21527cf9da6--><g id="link_7357329cc0f0b64acb1bd02867aa8271_4924d48312b63a4730c1e21527cf9da6"><path codeLine="60" d="M247.27,282.56 C250.22,374.8 255.8185,549.8731 257.6985,608.7431 " fill="none" id="7357329cc0f0b64acb1bd02867aa8271-to-4924d48312b63a4730c1e21527cf9da6" style="stroke:#181818;stroke-width:1.0;stroke-dasharray:7.0,7.0;"/><polygon fill="#181818" points="257.89,614.74,261.6007,605.6169,257.7304,609.7425,253.6048,605.8723,257.89,614.74" style="stroke:#181818;stroke-width:1.0;"/><text fill="#000000" font-family="sans-serif" font-size="13" lengthAdjust="spacing" textLength="23" x="253.5" y="462.1469">use</text></g><!--reverse link 093e015c99474929933ff85bb655d1ef to 11e0eed8d3696c0a632f822df385ab3c--><g id="link_093e015c99474929933ff85bb655d1ef_11e0eed8d3696c0a632f822df385ab3c"><path codeLine="61" d="M895.1005,38.4602 C748.4805,40.4202 486.06,51.61 409.5,106.59 C386.175,123.34 372.245,152.3675 364.1125,177.5287 C363.6042,179.1013 363.1186,180.6588 362.6547,182.1972 C362.4228,182.9665 362.1963,183.7309 361.9751,184.4901 C361.8646,184.8697 361.7553,185.248 361.6474,185.6249 " fill="none" id="093e015c99474929933ff85bb655d1ef-backto-11e0eed8d3696c0a632f822df385ab3c" style="stroke:#181818;stroke-width:1.0;"/><polygon fill="#181818" points="901.1,38.38,892.0473,34.5007,896.1004,38.4468,892.1543,42.4999,901.1,38.38" style="stroke:#181818;stroke-width:1.0;"/></g><!--link fec57329d6a9b94d70a2945dd5dce11f to 5869f2e2a23d931979e7c1c46841e061--><g id="link_fec57329d6a9b94d70a2945dd5dce11f_5869f2e2a23d931979e7c1c46841e061"><path codeLine="62" d="M649.5,282.5 C649.5,313.22 649.5,348.25 649.5,363.41 " fill="none" id="fec57329d6a9b94d70a2945dd5dce11f-5869f2e2a23d931979e7c1c46841e061" style="stroke:#181818;stroke-width:1.0;"/></g><!--link 5869f2e2a23d931979e7c1c46841e061 to c50bf13d046061855106b88f888f338d--><g id="link_5869f2e2a23d931979e7c1c46841e061_c50bf13d046061855106b88f888f338d"><path codeLine="63" d="M649.5,380.77 C649.5,406.61 649.5,490.13 649.5,516.21 " fill="none" id="5869f2e2a23d931979e7c1c46841e061-c50bf13d046061855106b88f888f338d" style="stroke:#181818;stroke-width:1.0;"/></g><!--reverse link 093e015c99474929933ff85bb655d1ef to 18897dcfce6a4e7ae63a3baeed443c48--><g id="link_093e015c99474929933ff85bb655d1ef_18897dcfce6a4e7ae63a3baeed443c48"><path codeLine="64" d="M981.0366,74.261 C975.3366,86.041 971.4,94.23 965.5,106.59 C953.13,132.51 939.37,161.68 928.585,184.6225 C925.8888,190.3581 923.3784,195.7045 921.1223,200.5136 C919.9942,202.9182 918.9296,205.1884 917.9371,207.3058 C917.8131,207.5705 917.6901,207.8328 917.5683,208.0926 " fill="none" id="093e015c99474929933ff85bb655d1ef-backto-18897dcfce6a4e7ae63a3baeed443c48" style="stroke:#181818;stroke-width:1.0;"/><polygon fill="#181818" points="983.65,68.86,976.1293,75.2192,981.4722,73.3608,983.3306,78.7037,983.65,68.86" style="stroke:#181818;stroke-width:1.0;"/></g><!--link 3c217ea98bfddc0f9ff1c849de325d93 to 09876deab5af8de0c168ec3aa053742d--><g id="link_3c217ea98bfddc0f9ff1c849de325d93_09876deab5af8de0c168ec3aa053742d"><path codeLine="65" d="M1112.36,282.5 C1127.32,313.22 1144.38,348.25 1151.77,363.41 " fill="none" id="3c217ea98bfddc0f9ff1c849de325d93-09876deab5af8de0c168ec3aa053742d" style="stroke:#181818;stroke-width:1.0;"/></g><!--link 09876deab5af8de0c168ec3aa053742d to b7fe1b80174213ef4fd0ec63be94522f--><g id="link_09876deab5af8de0c168ec3aa053742d_b7fe1b80174213ef4fd0ec63be94522f"><path codeLine="66" d="M1163.65,380.77 C1191.04,406.61 1279.53,490.13 1307.17,516.21 " fill="none" id="09876deab5af8de0c168ec3aa053742d-b7fe1b80174213ef4fd0ec63be94522f" style="stroke:#181818;stroke-width:1.0;"/></g><!--link 4ee201798dddc2e46fd8eed211348fce to e97a8ebb5bd6c0cab593286fe91e7d96--><g id="link_4ee201798dddc2e46fd8eed211348fce_e97a8ebb5bd6c0cab593286fe91e7d96"><path codeLine="67" d="M1085.5,654.68 C1085.5,679.83 1085.5,723.97 1085.5,749.1 " fill="none" id="4ee201798dddc2e46fd8eed211348fce-e97a8ebb5bd6c0cab593286fe91e7d96" style="stroke:#181818;stroke-width:1.0;"/><text fill="#000000" font-family="sans-serif" font-size="13" lengthAdjust="spacing" textLength="10" x="1086.5" y="715.4369">Z</text></g><!--link 3c217ea98bfddc0f9ff1c849de325d93 to 4ee201798dddc2e46fd8eed211348fce--><g id="link_3c217ea98bfddc0f9ff1c849de325d93_4ee201798dddc2e46fd8eed211348fce"><path codeLine="68" d="M1085.5,282.56 C1085.5,374.8 1085.5,549.87 1085.5,608.74 " fill="none" id="3c217ea98bfddc0f9ff1c849de325d93-to-4ee201798dddc2e46fd8eed211348fce" style="stroke:#181818;stroke-width:1.0;stroke-dasharray:7.0,7.0;"/><polygon fill="#181818" points="1085.5,614.74,1089.5,605.74,1085.5,609.74,1081.5,605.74,1085.5,614.74" style="stroke:#181818;stroke-width:1.0;"/><text fill="#000000" font-family="sans-serif" font-size="13" lengthAdjust="spacing" textLength="23" x="1086.5" y="462.1469">use</text></g><!--reverse link 093e015c99474929933ff85bb655d1ef to 86a1b907d54bf7010394bf316e183e67--><g id="link_093e015c99474929933ff85bb655d1ef_86a1b907d54bf7010394bf316e183e67"><path codeLine="69" d="M1101.5986,49.6396 C1141.1986,58.7096 1178.14,74.47 1205.5,106.59 C1207.6319,109.0937 1209.5734,111.7389 1211.3398,114.4985 C1212.223,115.8783 1213.0625,117.2867 1213.8601,118.7204 C1214.2589,119.4373 1214.6473,120.1604 1215.0254,120.8895 C1215.2145,121.254 1215.401,121.62 1215.585,121.9875 C1215.677,122.1712 1215.7684,122.3552 1215.8591,122.5397 " fill="none" id="093e015c99474929933ff85bb655d1ef-backto-86a1b907d54bf7010394bf316e183e67" style="stroke:#181818;stroke-width:1.0;"/><polygon fill="#181818" points="1095.75,48.3,1103.6298,54.2084,1100.6238,49.4163,1105.4159,46.4103,1095.75,48.3" style="stroke:#181818;stroke-width:1.0;"/></g><!--link c27c9a28fb102581235b89358b8c717e to 6f83c0e5ccf6b3d4b3a9b65477ecdb74--><g id="link_c27c9a28fb102581235b89358b8c717e_6f83c0e5ccf6b3d4b3a9b65477ecdb74"><path codeLine="70" d="M1977.6,251.18 C1941.69,266.4 1896.07,287.8 1858.5,312.08 C1834.14,327.82 1809.15,351.41 1797.02,363.44 " fill="none" id="c27c9a28fb102581235b89358b8c717e-6f83c0e5ccf6b3d4b3a9b65477ecdb74" style="stroke:#181818;stroke-width:1.0;"/></g><!--link 6f83c0e5ccf6b3d4b3a9b65477ecdb74 to e5fb061ea078eb61e215198574b052a8--><g id="link_6f83c0e5ccf6b3d4b3a9b65477ecdb74_e5fb061ea078eb61e215198574b052a8"><path codeLine="71" d="M1780.56,377.76 C1737.65,400.26 1553.02,497.07 1510.33,519.45 " fill="none" id="6f83c0e5ccf6b3d4b3a9b65477ecdb74-e5fb061ea078eb61e215198574b052a8" style="stroke:#181818;stroke-width:1.0;"/></g><!--link 29c79f3042b1758eff4465df78f895a5 to bc1253bc02f2ad410507bf241937244b--><g id="link_29c79f3042b1758eff4465df78f895a5_bc1253bc02f2ad410507bf241937244b"><path codeLine="72" d="M2358.5,654.68 C2358.5,679.83 2358.5,723.97 2358.5,749.1 " fill="none" id="29c79f3042b1758eff4465df78f895a5-bc1253bc02f2ad410507bf241937244b" style="stroke:#181818;stroke-width:1.0;"/><text fill="#000000" font-family="sans-serif" font-size="13" lengthAdjust="spacing" textLength="10" x="2359.5" y="715.4369">Z</text></g><!--link c27c9a28fb102581235b89358b8c717e to 29c79f3042b1758eff4465df78f895a5--><g id="link_c27c9a28fb102581235b89358b8c717e_29c79f3042b1758eff4465df78f895a5"><path codeLine="73" d="M2068.89,265.93 C2135.98,351.13 2290.9378,547.9262 2340.0478,610.2862 " fill="none" id="c27c9a28fb102581235b89358b8c717e-to-29c79f3042b1758eff4465df78f895a5" style="stroke:#181818;stroke-width:1.0;stroke-dasharray:7.0,7.0;"/><polygon fill="#181818" points="2343.76,615,2341.3342,605.4546,2340.6665,611.0719,2335.0492,610.4042,2343.76,615" style="stroke:#181818;stroke-width:1.0;"/><text fill="#000000" font-family="sans-serif" font-size="13" lengthAdjust="spacing" textLength="23" x="2226.5" y="462.1469">use</text></g><!--link 0632ece5cfac0cb066b362637384f6e4 to 063ac6550af2cdd4c94d0960bb3deffe--><g id="link_0632ece5cfac0cb066b362637384f6e4_063ac6550af2cdd4c94d0960bb3deffe"><path codeLine="74" d="M2690.5,654.68 C2690.5,679.83 2690.5,723.97 2690.5,749.1 " fill="none" id="0632ece5cfac0cb066b362637384f6e4-063ac6550af2cdd4c94d0960bb3deffe" style="stroke:#181818;stroke-width:1.0;"/><text fill="#000000" font-family="sans-serif" font-size="13" lengthAdjust="spacing" textLength="10" x="2691.5" y="715.4369">Z</text></g><!--link c27c9a28fb102581235b89358b8c717e to 0632ece5cfac0cb066b362637384f6e4--><g id="link_c27c9a28fb102581235b89358b8c717e_0632ece5cfac0cb066b362637384f6e4"><path codeLine="75" d="M2082.5,266 C2089.39,271.58 2096.53,277.11 2103.5,282.08 C2302.21,423.89 2554.8526,561.8026 2648.8826,611.8126 " fill="none" id="c27c9a28fb102581235b89358b8c717e-to-0632ece5cfac0cb066b362637384f6e4" style="stroke:#181818;stroke-width:1.0;stroke-dasharray:7.0,7.0;"/><polygon fill="#181818" points="2654.18,614.63,2648.1122,606.8723,2649.7655,612.2822,2644.3557,613.9355,2654.18,614.63" style="stroke:#181818;stroke-width:1.0;"/><text fill="#000000" font-family="sans-serif" font-size="13" lengthAdjust="spacing" textLength="23" x="2388.5" y="462.1469">use</text></g><!--link 840c8b84b11de622b4d3e004d5c16663 to 1c3db4ca35cb66ad77a84cf4df861728--><g id="link_840c8b84b11de622b4d3e004d5c16663_1c3db4ca35cb66ad77a84cf4df861728"><path codeLine="76" d="M1762.5,654.68 C1762.5,679.83 1762.5,723.97 1762.5,749.1 " fill="none" id="840c8b84b11de622b4d3e004d5c16663-1c3db4ca35cb66ad77a84cf4df861728" style="stroke:#181818;stroke-width:1.0;"/><text fill="#000000" font-family="sans-serif" font-size="13" lengthAdjust="spacing" textLength="10" x="1763.5" y="715.4369">Z</text></g><!--link c27c9a28fb102581235b89358b8c717e to 840c8b84b11de622b4d3e004d5c16663--><g id="link_c27c9a28fb102581235b89358b8c717e_840c8b84b11de622b4d3e004d5c16663"><path codeLine="77" d="M2012.29,265.93 C1954.43,351.13 1820.9409,547.6764 1778.5909,610.0364 " fill="none" id="c27c9a28fb102581235b89358b8c717e-to-840c8b84b11de622b4d3e004d5c16663" style="stroke:#181818;stroke-width:1.0;stroke-dasharray:7.0,7.0;"/><polygon fill="#181818" points="1775.22,615,1783.5854,609.8019,1778.0291,610.8637,1776.9673,605.3074,1775.22,615" style="stroke:#181818;stroke-width:1.0;"/><text fill="#000000" font-family="sans-serif" font-size="13" lengthAdjust="spacing" textLength="23" x="1888.5" y="462.1469">use</text></g><!--link 9abe2d319008c708a02aa28fff5096ea to 4f4e2d07e18aebf9df6bb39b46df6a88--><g id="link_9abe2d319008c708a02aa28fff5096ea_4f4e2d07e18aebf9df6bb39b46df6a88"><path codeLine="78" d="M2038.5,654.68 C2038.5,679.83 2038.5,723.97 2038.5,749.1 " fill="none" id="9abe2d319008c708a02aa28fff5096ea-4f4e2d07e18aebf9df6bb39b46df6a88" style="stroke:#181818;stroke-width:1.0;"/><text fill="#000000" font-family="sans-serif" font-size="13" lengthAdjust="spacing" textLength="10" x="2039.5" y="715.4369">Z</text></g><!--link c27c9a28fb102581235b89358b8c717e to 9abe2d319008c708a02aa28fff5096ea--><g id="link_c27c9a28fb102581235b89358b8c717e_9abe2d319008c708a02aa28fff5096ea"><path codeLine="79" d="M2038.5,265.93 C2038.5,351.13 2038.5,546.64 2038.5,609 " fill="none" id="c27c9a28fb102581235b89358b8c717e-to-9abe2d319008c708a02aa28fff5096ea" style="stroke:#181818;stroke-width:1.0;stroke-dasharray:7.0,7.0;"/><polygon fill="#181818" points="2038.5,615,2042.5,606,2038.5,610,2034.5,606,2038.5,615" style="stroke:#181818;stroke-width:1.0;"/><text fill="#000000" font-family="sans-serif" font-size="13" lengthAdjust="spacing" textLength="23" x="2039.5" y="462.1469">use</text></g><!--reverse link 093e015c99474929933ff85bb655d1ef to 6f89db8c03f726c7dbb1e9cd1bd5fcec--><g id="link_093e015c99474929933ff85bb655d1ef_6f89db8c03f726c7dbb1e9cd1bd5fcec"><path codeLine="80" d="M1101.94,38.3499 C1473.34,38.9599 2776.5,45.47 2839.5,106.59 C2858.185,124.72 2860.415,153.77 2857.8613,178.5975 C2857.542,181.7009 2857.1481,184.7384 2856.7022,187.6803 C2856.4792,189.1513 2856.2432,190.5983 2855.9972,192.0178 C2855.8741,192.7276 2855.7485,193.4304 2855.6208,194.1259 C2855.5889,194.2998 2855.5568,194.4732 2855.5246,194.6461 " fill="none" id="093e015c99474929933ff85bb655d1ef-backto-6f89db8c03f726c7dbb1e9cd1bd5fcec" style="stroke:#181818;stroke-width:1.0;"/><polygon fill="#181818" points="1095.94,38.34,1104.9334,42.3548,1100.94,38.3482,1104.9466,34.3548,1095.94,38.34" style="stroke:#181818;stroke-width:1.0;"/></g><!--SRC=[bLPPYnj747wVNp4iUKW4E-hxM9o5W4CW3x4nUSg1wJhQ4TRXIF9k5kF_xjBeiEHrw3MIO0PrVLNrrLTLNURprVrYzjzi-QPRheZxgyda7VDQtWbUBtbxlrg_dKp-MZvxTdYvlRtgowPNsRBI7dDsqMMJixMr9WyGl2VDzO3sl6mBb0sFDbgpOgP4DkI0gWHhQZA6gas-WCN-GzVZQl5kjUJbje_MHsioegeAWYi86aYP568foKJT_zbD9dJ0dqowRhOeR_YcNpni_ftVf6xDcsrPRs_wChyl3vkk-xlx_eV-obeLzXaKxxGXhJAvu2qY5FOsAww9YtRGYV6i5jpsLzExifxEPp0TiKThoTcHIrOR2BQuQ1LgDjgRY3LJ2Tt70mC_pyjcEyCDbpN-iwSXfHm9At8eZcDX0R3YdCavYovTqb0PHnueb0pPKLJ5PEU9F25hNKSQ-Dp96HUqmhUy7Wv_3xYQNfoyVBj9WrQ3wtXvDrklbWlnBWYp3QxkUFqmR1_UyOyR4SQShtUf7GdDHganBvz2hePDCPQorJbcZgZHXUIay46VA7d5WZgQf50qP1N9EwXHQMMpF5WTM2VB8LvIOT7eo2Kdg4GYYrohnkGoiJLUN8vKh7VWZocOhQRZFpVn_uGHRCm7QQSOY0luKXEn53OaHbkAyZOwG-V2sEblhmTcetJCYIGqmovKIb9HexLrIKfzIlxbiRj6ir1J9aYeR8qcO2G0pHb9fEx5wekMG55NBYPLqChuf8traBBrIH2YK3CIS6hV7Gc7t98wr4ZyMLJi4Mi0Imwig2fu5oCZGNJdkMtMTzFx-_lX12ZwMKm_JuSDhqKO8woqQSpLAcT0Hv-uLYSzHJKcoSyNtuPTbDboCzlk1uMIoS0eKOg9Gb11OWr62cIJgu6V4ELMQdoGc5Ce_3ZGcZWO0uvaSYb7NkeQWcrZYOBsKBa06n9bAoLygrIKARjgrEfL3boanZkojOc3ae-K_ZXhYa7fOv2crwAi42qOpyg4o34Ov_sbtQcZq2kesf9oGVedUQzLW2ISoi_QH9Tc9m53hAmXYHoTqPQhgwGOWmMMmM5C7Ss- -_3yrvz- - -N5wvSlNlr-lHF8nz6OVHN2DHSL4qCOXvhEoKS7ofkIplZwB0Kw7_CPajOXHWKovNSg9S08GUQtI3mQ_2h2s9olJ-t4EHPn3nv8DWLABsOhexzorXmfXpECOPZAzwko1DJ6Mq1bgYdajF8gGZLEPnkDknZnUvGlLLXGrfagrI2HGvc-KcS5qZYYS7va_Lbq6Ys1ms8zGWY5ecJZi3ggAGWBwP7fIMEkEj6OYZ802uEi4kbJi1bSaAUIKjTSYzTqtTvjhGCZIbErhIKuehJaqD_qLtzSjVCQ1Xg6s-RYtS6z5oLspTl6zVlhs_Ozfhb_TpasLr_hm8ZIRFVcpU5fAJNtw2YXrXPi7HXHcgEejJT7bDOqE4YecTTHGYsVHmarhoTFuxkvjdSvDZTpwy2UgTRqRctgVTKQS_F0TpEl0zzDdqU-Mtj_Byp6MFx6u9e-Js9eN2J6u5g3_nk3Q_ey1jUwcep1jNRBDmRNz7aChdd9VL8RVG80]--></g></svg>