<svg fill="none" height="24" viewBox="0 0 24 24" width="24" xmlns="http://www.w3.org/2000/svg"><g stroke="#ffffff" stroke-linecap="round" stroke-linejoin="round" stroke-width="1.5"><path d="m10 20.5675c-3.42857 1.1573-6.28571 0-8-3.5675"/><path d="m10 22v-3.2421c0-.5983.1839-1.1183.4804-1.588.2034-.3223.0641-.7795-.3033-.8805-3.04316-.8366-5.1771-2.1817-5.1771-6.64334 0-1.15995.38005-2.2505 1.04811-3.19966.16626-.23622.24938-.35432.26937-.4613.01998-.10697-.01476-.24658-.08426-.52578-.28284-1.1364-.26451-2.34313.16-3.43109 0 0 .8772-.28581 2.87376.96146.45584.28478.68377.42717.88452.45902.2007.03185.4691-.03487 1.0058-.1683.734-.18246 1.4903-.28041 2.3427-.28041s1.6087.09795 2.3427.28041c.5367.13343.8051.20015 1.0058.1683.2008-.03185.4287-.17424.8845-.45902 1.9966-1.24727 2.8738-.96146 2.8738-.96146.4245 1.08796.4428 2.29469.16 3.43109-.0695.2792-.1043.41881-.0843.52578s.1031.22509.2694.4613c.668.94916 1.0481 2.03971 1.0481 3.19966 0 4.46164-2.1339 5.80674-5.1771 6.64334-.3674.101-.5067.5582-.3033.8805.2965.4697.4804.9897.4804 1.588v3.2421"/></g></svg>
